# xmcd
#
# Track frame offsets: 
#        150
#        17429
#        32635
#        47406
#        61453
#        74179
#        89361
#        102042
#
# Disc length: 1673 seconds
#
# Revision: 0
# Processed by: cddbd v1.5.2PL0 Copyright (c) Steve Scherf et al.
# Submitted via: ExactAudioCopy v0.95a5
#
DISCID=62068708
DTITLE=Kendoj Blues - Maxi
DYEAR=1900
DGENRE=Blues
TTITLE0=Kendoj Blues
TTITLE1=Bugja
TTITLE2=Kam nje motorr
TTITLE3=Bakllava
TTITLE4=Ti ku ke moj Dado
TTITLE5=Oj lulia jone me limona
TTITLE6=Xinxile
TTITLE7=Instrumental -The Last Mach
EXTD=
EXTT0=
EXTT1=
EXTT2=
EXTT3=
EXTT4=
EXTT5=
EXTT6=
EXTT7=
PLAYORDER=
